<?xml version="1.0" encoding="utf-8"?>
<!-- Generator: Adobe Illustrator 20.1.0, SVG Export Plug-In . SVG Version: 6.00 Build 0)  -->
<svg version="1.1" id="Layer_1" xmlns="http://www.w3.org/2000/svg" xmlns:xlink="http://www.w3.org/1999/xlink" x="0px" y="0px"
	 viewBox="0 0 177.4 92.1" style="enable-background:new 0 0 177.4 92.1;" xml:space="preserve">
<style type="text/css">
	.st0{fill:url(#SVGID_1_);}
	.st1{fill:url(#SVGID_2_);}
	.st2{fill:url(#SVGID_3_);}
	.st3{fill:url(#SVGID_4_);}
	.st4{fill:url(#SVGID_5_);}
	.st5{fill:url(#SVGID_6_);}
	.st6{fill:#03E003;}
	.st7{fill:url(#SVGID_7_);}
	.st8{fill:url(#SVGID_8_);}
	.st9{fill:url(#SVGID_9_);}
	.st10{fill:url(#SVGID_10_);}
	.st11{fill:url(#SVGID_11_);}
	.st12{fill:url(#SVGID_12_);}
	.st13{fill:url(#SVGID_13_);}
	.st14{fill:#FFFFFF;}
</style>
<title>elexir_logga</title>
<linearGradient id="SVGID_1_" gradientUnits="userSpaceOnUse" x1="229.586" y1="13.0415" x2="280.8964" y2="-5.635" gradientTransform="matrix(1 0 0.14 -1 -224.32 39.94)">
	<stop  offset="0" style="stop-color:#03E003"/>
	<stop  offset="0.44" style="stop-color:#03DE03"/>
	<stop  offset="0.6" style="stop-color:#03D703"/>
	<stop  offset="0.72" style="stop-color:#02CC02"/>
	<stop  offset="0.81" style="stop-color:#02BB02"/>
	<stop  offset="0.89" style="stop-color:#01A501"/>
	<stop  offset="0.96" style="stop-color:#018A01"/>
	<stop  offset="1" style="stop-color:#007600"/>
</linearGradient>
<path class="st0" d="M49.8,50.1c0.6-0.1,1.2,0.3,1.5,0.8c0.3,0.6,0.4,1.4,0.2,2.1c-0.1,1.2-0.6,2.4-1.4,3.4c-1,1.1-2.3,2-3.7,2.5
	c-3.4,1.4-7,2.4-10.6,3c-4.1,0.7-8.3,1.1-12.5,1.1c-4.7,0.1-9.3-0.5-13.8-1.9c-3.6-1.3-6.2-3-7.7-5.2c-1.5-2.2-2.1-4.9-1.7-7.5
	c0.5-3.7,2.3-7.2,5.1-9.8c2.8-2.7,6.8-4.6,11.7-5.8c-2.3-0.6-4.2-2-5.5-4c-1.1-1.9-1.6-4.2-1.2-6.4c0.5-3.2,1.9-6.2,4.2-8.5
	c2.5-2.6,5.6-4.5,9-5.7c3.7-1.3,7.6-2,11.6-2c5.5,0,9.5,1.2,11.9,3.6c2.4,2.4,3.5,5.9,2.8,9.2c-0.2,2.3-1,4.5-2.3,6.4
	c-1,1.5-2.6,2.4-4.4,2.4c-1,0.1-2-0.2-2.8-0.8c-0.7-0.6-0.9-1.6-0.7-2.5c0.1-0.8,0.4-1.7,0.7-2.5c0.3-1,0.6-2,0.8-3
	c0.3-1.4-0.2-2.9-1.2-3.9c-1.1-1-3-1.5-5.8-1.5c-3.3-0.1-6.6,0.7-9.4,2.4c-2.3,1.4-3.9,3.8-4.3,6.5c-0.4,1.9,0.3,3.9,1.8,5.2
	c1.5,1.3,4.2,2.1,8.1,2.2c0.7-0.1,1.5,0.2,2,0.7c0.4,0.6,0.5,1.3,0.3,2c-0.4,2.9-2,4.4-4.6,4.5c-3.2,0-6.4,0.5-9.4,1.5
	c-2.2,0.7-4.2,1.9-5.8,3.6c-1.2,1.3-2,2.9-2.3,4.6c-0.5,2.5,0.7,5.1,3,6.2c2.4,1.4,6.4,2.1,12,2.1c4,0,8-0.5,11.9-1.3
	c3.8-0.7,7.4-1.8,11-3.2C48.7,50.3,49.2,50.2,49.8,50.1z"/>
<linearGradient id="SVGID_2_" gradientUnits="userSpaceOnUse" x1="273.744" y1="13.346" x2="304.9153" y2="2.0028" gradientTransform="matrix(1 0 0.14 -1 -224.32 39.94)">
	<stop  offset="0" style="stop-color:#03E003"/>
	<stop  offset="0.44" style="stop-color:#03DE03"/>
	<stop  offset="0.6" style="stop-color:#03D703"/>
	<stop  offset="0.72" style="stop-color:#02CC02"/>
	<stop  offset="0.81" style="stop-color:#02BB02"/>
	<stop  offset="0.89" style="stop-color:#01A501"/>
	<stop  offset="0.96" style="stop-color:#018A01"/>
	<stop  offset="1" style="stop-color:#007600"/>
</linearGradient>
<path class="st1" d="M73.6,48.6c0.3,0.7,0.3,1.5,0.2,2.2c-0.1,1.5-0.8,3-1.9,4.1c-2.1,2.2-4.5,4.2-7.1,5.8c-2.4,1.5-5.2,2.3-8,2.3
	c-3.6,0.3-6.9-1.9-8-5.3c-1.4-3.6-1.7-8.2-0.9-13.8c1-6.3,2.6-12.5,4.8-18.5c2.1-6.3,5-12.3,8.7-17.9c3.4-5,7-7.5,10.8-7.5
	c2-0.1,3.9,1.1,4.6,3c0.9,2,1.2,4.8,0.6,8.5c-0.7,5.3-3.1,11.4-7,18.4c-4.2,7.4-9.2,14.3-14.8,20.7c-0.1,1.4,0.3,2.7,1,3.9
	c0.6,0.8,1.6,1.2,2.6,1.2c1.8,0,3.5-0.5,5-1.6c2.2-1.6,4.2-3.4,6-5.4c0.5-0.6,1.2-0.9,1.9-0.9C72.9,47.8,73.4,48.1,73.6,48.6z
	 M65.7,12.1c-2.1,4.4-3.9,9-5.3,13.7c-1.7,5.1-2.9,10.4-3.8,15.7c3.7-4.9,7-10.2,9.7-15.7c2.4-4.5,4-9.3,4.8-14.3
	c0.5-3.4,0.1-5.1-1.1-5.1C68.9,6.6,67.5,8.4,65.7,12.1z"/>
<linearGradient id="SVGID_3_" gradientUnits="userSpaceOnUse" x1="294.2708" y1="-2.6454" x2="325.3357" y2="-13.9536" gradientTransform="matrix(1 0 0.14 -1 -224.32 39.94)">
	<stop  offset="0" style="stop-color:#03E003"/>
	<stop  offset="0.44" style="stop-color:#03DE03"/>
	<stop  offset="0.6" style="stop-color:#03D703"/>
	<stop  offset="0.72" style="stop-color:#02CC02"/>
	<stop  offset="0.81" style="stop-color:#02BB02"/>
	<stop  offset="0.89" style="stop-color:#01A501"/>
	<stop  offset="0.96" style="stop-color:#018A01"/>
	<stop  offset="1" style="stop-color:#007600"/>
</linearGradient>
<path class="st2" d="M99.8,48.6c0.3,0.7,0.3,1.5,0.2,2.2c-0.1,1.5-0.8,3-1.9,4.1c-2.3,2.3-4.9,4.1-7.8,5.5c-3.1,1.6-6.5,2.5-10,2.5
	c-4.7,0-8.1-1.3-10.3-3.8c-2.2-2.5-3-6-2.4-10.4c0.4-3,1.5-6,3.2-8.6c1.6-2.6,3.7-4.7,6.2-6.3c2.4-1.5,5.2-2.3,8.1-2.3
	c2.2-0.2,4.4,0.7,5.9,2.3c1.3,1.5,1.8,3.6,1.5,6.2c-0.4,3.1-2,5.9-4.4,7.9c-2.5,2.2-6.5,3.9-11.9,5.2c0.8,2,2.8,3.1,5.9,3.1
	c2.5-0.1,4.9-0.9,7.1-2.1c2.8-1.4,5.3-3.3,7.4-5.5c0.5-0.6,1.2-0.9,1.9-0.9C99.1,47.8,99.6,48.1,99.8,48.6z M78.5,41
	c-1.5,2.1-2.4,4.4-2.7,6.9v0.1c2.4-0.5,4.6-1.4,6.6-2.8c1.5-1,2.6-2.6,2.9-4.3c0.1-0.7,0-1.4-0.4-2c-0.4-0.5-1.1-0.8-1.8-0.8
	C81.5,38.1,80,39.1,78.5,41L78.5,41z"/>
<linearGradient id="SVGID_4_" gradientUnits="userSpaceOnUse" x1="320.9044" y1="-1.5225" x2="359.7043" y2="-15.6425" gradientTransform="matrix(1 0 0.14 -1 -224.32 39.94)">
	<stop  offset="0" style="stop-color:#03E003"/>
	<stop  offset="0.44" style="stop-color:#03DE03"/>
	<stop  offset="0.6" style="stop-color:#03D703"/>
	<stop  offset="0.72" style="stop-color:#02CC02"/>
	<stop  offset="0.81" style="stop-color:#02BB02"/>
	<stop  offset="0.89" style="stop-color:#01A501"/>
	<stop  offset="0.96" style="stop-color:#018A01"/>
	<stop  offset="1" style="stop-color:#007600"/>
</linearGradient>
<path class="st3" d="M134.8,48.6c0.3,0.7,0.3,1.5,0.2,2.2c-0.1,1.5-0.8,3-1.9,4.1c-2.2,2.2-4.6,4.2-7.2,5.8
	c-2.5,1.5-5.3,2.3-8.2,2.3c-2,0.1-4-0.4-5.9-1.3c-1.6-0.8-2.9-2-3.7-3.6c-3,3.2-6.2,4.8-9.7,4.8c-3.4,0.4-6.6-2.1-7-5.5
	c-0.1-0.8,0-1.5,0.2-2.3c0.2-2,1-3.9,2.3-5.4c1.2-1.4,2.9-2.1,4.6-2.1c1.6,0,2.3,0.6,2.1,1.8c0,0.3-0.2,0.9-0.4,1.7
	c-0.4,1.6-0.6,2.5-0.6,2.7c-0.2,1.3,0.3,2,1.4,2c1.1-0.1,2-0.7,2.6-1.5c1.1-1.2,1.9-2.6,2.5-4.1c0.8-1.8,1.3-3.8,1.6-5.7
	c0.2-1.3,0.2-2.7,0-4c-0.2-1.1-0.7-1.6-1.2-1.6c-0.4,0-0.8,0.1-1.1,0.4c-0.3,0.4-0.6,0.8-0.8,1.2c-0.3,0.6-0.8,1.2-1.3,1.7
	c-0.7,0.5-1.6,0.7-2.4,0.6c-0.9,0.1-1.7-0.3-2.2-1c-0.5-1-0.7-2.1-0.4-3.2c0.2-2.1,1.2-4,2.8-5.3c1.6-1.3,3.6-2,5.6-1.9
	c1.7,0,3.4,0.4,4.9,1.4c1.4,0.9,2.4,2.4,2.9,4c1.4-1.6,3.1-3,5.1-4c1.6-0.8,3.3-1.3,5.1-1.3c1.4-0.1,2.7,0.3,3.8,1.2
	c0.8,0.8,1.1,2.1,0.8,3.9c-0.2,1.7-0.8,3.3-1.8,4.7c-0.7,1-1.8,1.6-3,1.7c-0.7,0.1-1.4-0.1-1.9-0.6c-0.3-0.5-0.5-1.1-0.6-1.7
	c0-0.4-0.1-0.8-0.2-1.2c-0.2-0.3-0.5-0.4-0.9-0.4c-0.5,0-1.2,0.5-1.9,1.5c-0.9,1.2-1.6,2.6-2.1,4c-0.7,1.7-1.1,3.4-1.4,5.1
	c-0.4,1.7-0.1,3.4,0.8,4.8c0.9,1.2,2.4,1.8,3.9,1.7c1.9,0,3.7-0.7,5.1-1.8c2.2-1.6,4.3-3.5,6.1-5.5c0.5-0.6,1.2-0.9,1.9-0.9
	C134,47.9,134.5,48.2,134.8,48.6z"/>
<linearGradient id="SVGID_5_" gradientUnits="userSpaceOnUse" x1="354.8141" y1="-4.4062" x2="377.2045" y2="-12.5563" gradientTransform="matrix(1 0 0.14 -1 -224.32 39.94)">
	<stop  offset="0" style="stop-color:#03E003"/>
	<stop  offset="0.44" style="stop-color:#03DE03"/>
	<stop  offset="0.6" style="stop-color:#03D703"/>
	<stop  offset="0.72" style="stop-color:#02CC02"/>
	<stop  offset="0.81" style="stop-color:#02BB02"/>
	<stop  offset="0.89" style="stop-color:#01A501"/>
	<stop  offset="0.96" style="stop-color:#018A01"/>
	<stop  offset="1" style="stop-color:#007600"/>
</linearGradient>
<path class="st4" d="M130.2,59.9c-1-2-1.3-4.8-0.8-8.1c0.4-2.6,1-5.2,1.9-7.7c0.9-3,2-5.9,3.2-8.8c0.4-1.1,1.1-2.1,2-2.9
	c1-0.6,2.2-0.9,3.3-0.8c2.3,0,3.3,0.8,3.1,2.3c-0.6,2.6-1.4,5.2-2.4,7.7c-1.3,3.2-2.3,6.5-3,9.9c-0.2,1-0.2,2.1,0.1,3.1
	c0.2,0.7,0.9,1.1,1.6,1.1c1.2-0.2,2.4-0.8,3.2-1.7c1.9-1.7,3.8-3.4,5.5-5.3c0.5-0.6,1.2-0.9,1.9-0.9c0.5,0,1,0.3,1.2,0.8
	c0.3,0.7,0.3,1.5,0.2,2.2c-0.1,1.5-0.8,3-1.9,4.1c-5.2,5.4-9.7,8.1-13.5,8.1C133.1,63,131.2,62,130.2,59.9z"/>
<radialGradient id="SVGID_6_" cx="216.71" cy="19.67" r="12.29" gradientTransform="matrix(1 0 0 -1 -71.2 39.94)" gradientUnits="userSpaceOnUse">
	<stop  offset="4.000000e-02" style="stop-color:#D8002F"/>
	<stop  offset="0.27" style="stop-color:#D3002C"/>
	<stop  offset="0.53" style="stop-color:#C40025"/>
	<stop  offset="0.82" style="stop-color:#AD0018"/>
	<stop  offset="1" style="stop-color:#9A000E"/>
</radialGradient>
<path class="st5" d="M137.6,25.9c-0.9-1-1.2-2.4-0.9-3.6c0.2-1.6,1.1-3,2.4-3.9c1.4-1,3.1-1.6,4.8-1.6c1.4-0.1,2.7,0.3,3.8,1.2
	c0.9,0.9,1.3,2.2,1.1,3.4c-0.2,1.7-1,3.2-2.3,4.2c-1.4,1.1-3.1,1.6-4.8,1.6C140.1,27.4,138.7,26.9,137.6,25.9z"/>
<path class="st6" d="M176.7,41.8c0.6,0.7,0.8,1.7,0.7,2.6c-0.1,0.7-0.3,1.3-0.7,1.9c-0.9,1.6-2.1,3-3.6,4.1c-1.3,1-2.9,1.6-4.5,1.7
	c-1.2,0.1-2.3-0.4-3-1.3c-0.8-1-1.1-2.3-0.8-3.6c0.1-0.8,0.3-1.8,0.5-2.7c0.1-0.5,0.3-1,0.3-1.5c0.1-0.3,0-0.6-0.1-0.8
	c-0.1-0.2-0.3-0.3-0.5-0.3c-0.6,0-1.6,0.7-2.9,2.2c-1.5,1.8-2.8,3.8-4,5.9c-1.4,2.5-2.7,5.1-3.7,7.7c-0.5,1.5-1.3,3-2.3,4.2
	c-0.9,0.8-2,1.2-3.2,1.1c-1.6,0.1-3-1.1-3.2-2.7c-0.4-1.8-0.4-4.6,0.2-8.5c0.8-5.7,2.4-11.2,4.8-16.5c0.5-1.2,1.3-2.2,2.4-2.8
	c1.2-0.7,2.6-1,4-0.9c0.6-0.1,1.3,0.1,1.8,0.3c0.3,0.2,0.4,0.6,0.4,1.3c-0.4,1.6-1,3.3-1.7,4.8c-0.7,1.8-1.2,3.3-1.7,4.7
	c-0.5,1.3-0.9,3-1.4,4.9c1.7-3.4,3.8-6.5,6.2-9.3c1.7-2,3.7-3.8,6-5.1c1.5-0.9,3.2-1.4,5-1.5c1.1-0.1,2.1,0.3,2.8,1.1
	c0.6,1,0.8,2.1,0.6,3.2c-0.3,1.6-0.8,3.2-1.4,4.8h0.6C175.3,40.7,176.1,41.1,176.7,41.8z"/>
<linearGradient id="SVGID_7_" gradientUnits="userSpaceOnUse" x1="-285.4439" y1="85.59" x2="-283.6339" y2="87.4" gradientTransform="matrix(1.51 -9.000000e-02 9.000000e-02 -1.17 567.76 96.02)">
	<stop  offset="0" style="stop-color:#FFFFFF;stop-opacity:0"/>
	<stop  offset="0.37" style="stop-color:#FFFFFF;stop-opacity:0.39"/>
	<stop  offset="0.81" style="stop-color:#FFFFFF;stop-opacity:0.83"/>
	<stop  offset="1" style="stop-color:#FFFFFF"/>
</linearGradient>
<path class="st7" d="M147.7,19.7c0.2,1.2-0.1,2.5-0.8,3.5c0-1-0.2-2-0.5-3c-0.6-1.9-2-1.6-2-2.2C144.4,17.7,147.3,18.3,147.7,19.7z"
	/>
<linearGradient id="SVGID_8_" gradientUnits="userSpaceOnUse" x1="253.3814" y1="-23.4283" x2="245.4715" y2="32.8606" gradientTransform="matrix(1 0 0.14 -1 -224.32 39.94)">
	<stop  offset="0" style="stop-color:#03E003;stop-opacity:0"/>
	<stop  offset="0.25" style="stop-color:#03E003;stop-opacity:1.000000e-02"/>
	<stop  offset="0.39" style="stop-color:#03E103;stop-opacity:4.000000e-02"/>
	<stop  offset="0.5" style="stop-color:#03E303;stop-opacity:9.000000e-02"/>
	<stop  offset="0.6" style="stop-color:#02E502;stop-opacity:0.17"/>
	<stop  offset="0.68" style="stop-color:#02E802;stop-opacity:0.27"/>
	<stop  offset="0.76" style="stop-color:#02EC02;stop-opacity:0.39"/>
	<stop  offset="0.83" style="stop-color:#01F101;stop-opacity:0.53"/>
	<stop  offset="0.9" style="stop-color:#01F601;stop-opacity:0.7"/>
	<stop  offset="0.96" style="stop-color:#00FB00;stop-opacity:0.88"/>
	<stop  offset="1" style="stop-color:#00FF00"/>
</linearGradient>
<path class="st8" d="M49.8,50.1c0.6-0.1,1.2,0.3,1.5,0.8c0.3,0.6,0.4,1.4,0.2,2.1c-0.1,1.2-0.6,2.4-1.4,3.4c-1,1.1-2.3,2-3.7,2.5
	c-3.4,1.4-7,2.4-10.6,3c-4.1,0.7-8.3,1.1-12.5,1.1c-4.7,0.1-9.3-0.5-13.8-1.9c-3.6-1.3-6.2-3-7.7-5.2c-1.5-2.2-2.1-4.9-1.7-7.5
	c0.5-3.7,2.3-7.2,5.1-9.8c2.8-2.7,6.8-4.6,11.7-5.8c-2.3-0.6-4.2-2-5.5-4c-1.1-1.9-1.6-4.2-1.2-6.4c0.5-3.2,1.9-6.2,4.2-8.5
	c2.5-2.6,5.6-4.5,9-5.7c3.7-1.3,7.6-2,11.6-2c5.5,0,9.5,1.2,11.9,3.6c2.4,2.4,3.5,5.9,2.8,9.2c-0.2,2.3-1,4.5-2.3,6.4
	c-1,1.5-2.6,2.4-4.4,2.4c-1,0.1-2-0.2-2.8-0.8c-0.7-0.6-0.9-1.6-0.7-2.5c0.1-0.8,0.4-1.7,0.7-2.5c0.3-1,0.6-2,0.8-3
	c0.3-1.4-0.2-2.9-1.2-3.9c-1.1-1-3-1.5-5.8-1.5c-3.3-0.1-6.6,0.7-9.4,2.4c-2.3,1.4-3.9,3.8-4.3,6.5c-0.4,1.9,0.3,3.9,1.8,5.2
	c1.5,1.3,4.2,2.1,8.1,2.2c0.7-0.1,1.5,0.2,2,0.7c0.4,0.6,0.5,1.3,0.3,2c-0.4,2.9-2,4.4-4.6,4.5c-3.2,0-6.4,0.5-9.4,1.5
	c-2.2,0.7-4.2,1.9-5.8,3.6c-1.2,1.3-2,2.9-2.3,4.6c-0.5,2.5,0.7,5.1,3,6.2c2.4,1.4,6.4,2.1,12,2.1c4,0,8-0.5,11.9-1.3
	c3.8-0.7,7.4-1.8,11-3.2C48.7,50.3,49.2,50.2,49.8,50.1z"/>
<linearGradient id="SVGID_9_" gradientUnits="userSpaceOnUse" x1="290.194" y1="-22.4296" x2="281.6062" y2="38.6945" gradientTransform="matrix(1 0 0.14 -1 -224.32 39.94)">
	<stop  offset="0" style="stop-color:#03E003;stop-opacity:0"/>
	<stop  offset="0.25" style="stop-color:#03E003;stop-opacity:1.000000e-02"/>
	<stop  offset="0.39" style="stop-color:#03E103;stop-opacity:4.000000e-02"/>
	<stop  offset="0.5" style="stop-color:#03E303;stop-opacity:9.000000e-02"/>
	<stop  offset="0.6" style="stop-color:#02E502;stop-opacity:0.17"/>
	<stop  offset="0.68" style="stop-color:#02E802;stop-opacity:0.27"/>
	<stop  offset="0.76" style="stop-color:#02EC02;stop-opacity:0.39"/>
	<stop  offset="0.83" style="stop-color:#01F101;stop-opacity:0.53"/>
	<stop  offset="0.9" style="stop-color:#01F601;stop-opacity:0.7"/>
	<stop  offset="0.96" style="stop-color:#00FB00;stop-opacity:0.88"/>
	<stop  offset="1" style="stop-color:#00FF00"/>
</linearGradient>
<path class="st9" d="M73.6,48.6c0.3,0.7,0.3,1.5,0.2,2.2c-0.1,1.5-0.8,3-1.9,4.1c-2.1,2.2-4.5,4.2-7.1,5.8c-2.4,1.5-5.2,2.3-8,2.3
	c-3.6,0.3-6.9-1.9-8-5.3c-1.4-3.6-1.7-8.2-0.9-13.8c1-6.3,2.6-12.5,4.8-18.5c2.1-6.3,5-12.3,8.7-17.9c3.4-5,7-7.5,10.8-7.5
	c2-0.1,3.9,1.1,4.6,3c0.9,2,1.2,4.8,0.6,8.5c-0.7,5.3-3.1,11.4-7,18.4c-4.2,7.4-9.2,14.3-14.8,20.7c-0.1,1.4,0.3,2.7,1,3.9
	c0.6,0.8,1.6,1.2,2.6,1.2c1.8,0,3.5-0.5,5-1.6c2.2-1.6,4.2-3.4,6-5.4c0.5-0.6,1.2-0.9,1.9-0.9C72.9,47.8,73.4,48.1,73.6,48.6z
	 M65.7,12.1c-2.1,4.4-3.9,9-5.3,13.7c-1.7,5.1-2.9,10.4-3.8,15.7c3.7-4.9,7-10.2,9.7-15.7c2.4-4.5,4-9.3,4.8-14.3
	c0.5-3.4,0.1-5.1-1.1-5.1C68.9,6.6,67.5,8.4,65.7,12.1z"/>
<linearGradient id="SVGID_10_" gradientUnits="userSpaceOnUse" x1="311.2724" y1="-22.8064" x2="306.905" y2="8.275" gradientTransform="matrix(1 0 0.14 -1 -224.32 39.94)">
	<stop  offset="0" style="stop-color:#03E003;stop-opacity:0"/>
	<stop  offset="0.25" style="stop-color:#03E003;stop-opacity:1.000000e-02"/>
	<stop  offset="0.39" style="stop-color:#03E103;stop-opacity:4.000000e-02"/>
	<stop  offset="0.5" style="stop-color:#03E303;stop-opacity:9.000000e-02"/>
	<stop  offset="0.6" style="stop-color:#02E502;stop-opacity:0.17"/>
	<stop  offset="0.68" style="stop-color:#02E802;stop-opacity:0.27"/>
	<stop  offset="0.76" style="stop-color:#02EC02;stop-opacity:0.39"/>
	<stop  offset="0.83" style="stop-color:#01F101;stop-opacity:0.53"/>
	<stop  offset="0.9" style="stop-color:#01F601;stop-opacity:0.7"/>
	<stop  offset="0.96" style="stop-color:#00FB00;stop-opacity:0.88"/>
	<stop  offset="1" style="stop-color:#00FF00"/>
</linearGradient>
<path class="st10" d="M99.8,48.6c0.3,0.7,0.3,1.5,0.2,2.2c-0.1,1.5-0.8,3-1.9,4.1c-2.3,2.3-4.9,4.1-7.8,5.5c-3.1,1.6-6.5,2.5-10,2.5
	c-4.7,0-8.1-1.3-10.3-3.8c-2.2-2.5-3-6-2.4-10.4c0.4-3,1.5-6,3.2-8.6c1.6-2.6,3.7-4.7,6.2-6.3c2.4-1.5,5.2-2.3,8.1-2.3
	c2.2-0.2,4.4,0.7,5.9,2.3c1.3,1.5,1.8,3.6,1.5,6.2c-0.4,3.1-2,5.9-4.4,7.9c-2.5,2.2-6.5,3.9-11.9,5.2c0.8,2,2.8,3.1,5.9,3.1
	c2.5-0.1,4.9-0.9,7.1-2.1c2.8-1.4,5.3-3.3,7.4-5.5c0.5-0.6,1.2-0.9,1.9-0.9C99.1,47.8,99.6,48.1,99.8,48.6z M78.5,41
	c-1.5,2.1-2.4,4.4-2.7,6.9v0.1c2.4-0.5,4.6-1.4,6.6-2.8c1.5-1,2.6-2.6,2.9-4.3c0.1-0.7,0-1.4-0.4-2c-0.4-0.5-1.1-0.8-1.8-0.8
	C81.5,38.1,80,39.1,78.5,41L78.5,41z"/>
<linearGradient id="SVGID_11_" gradientUnits="userSpaceOnUse" x1="340.9115" y1="-23.8435" x2="336.2115" y2="9.5865" gradientTransform="matrix(1 0 0.14 -1 -224.32 39.94)">
	<stop  offset="0" style="stop-color:#03E003;stop-opacity:0"/>
	<stop  offset="0.25" style="stop-color:#03E003;stop-opacity:1.000000e-02"/>
	<stop  offset="0.39" style="stop-color:#03E103;stop-opacity:4.000000e-02"/>
	<stop  offset="0.5" style="stop-color:#03E303;stop-opacity:9.000000e-02"/>
	<stop  offset="0.6" style="stop-color:#02E502;stop-opacity:0.17"/>
	<stop  offset="0.68" style="stop-color:#02E802;stop-opacity:0.27"/>
	<stop  offset="0.76" style="stop-color:#02EC02;stop-opacity:0.39"/>
	<stop  offset="0.83" style="stop-color:#01F101;stop-opacity:0.53"/>
	<stop  offset="0.9" style="stop-color:#01F601;stop-opacity:0.7"/>
	<stop  offset="0.96" style="stop-color:#00FB00;stop-opacity:0.88"/>
	<stop  offset="1" style="stop-color:#00FF00"/>
</linearGradient>
<path class="st11" d="M134.8,48.6c0.3,0.7,0.3,1.5,0.2,2.2c-0.1,1.5-0.8,3-1.9,4.1c-2.2,2.2-4.6,4.2-7.2,5.8
	c-2.5,1.5-5.3,2.3-8.2,2.3c-2,0.1-4-0.4-5.9-1.3c-1.6-0.8-2.9-2-3.7-3.6c-3,3.2-6.2,4.8-9.7,4.8c-3.4,0.4-6.6-2.1-7-5.5
	c-0.1-0.8,0-1.5,0.2-2.3c0.2-2,1-3.9,2.3-5.4c1.2-1.4,2.9-2.1,4.6-2.1c1.6,0,2.3,0.6,2.1,1.8c0,0.3-0.2,0.9-0.4,1.7
	c-0.4,1.6-0.6,2.5-0.6,2.7c-0.2,1.3,0.3,2,1.4,2c1.1-0.1,2-0.7,2.6-1.5c1.1-1.2,1.9-2.6,2.5-4.1c0.8-1.8,1.3-3.8,1.6-5.7
	c0.2-1.3,0.2-2.7,0-4c-0.2-1.1-0.7-1.6-1.2-1.6c-0.4,0-0.8,0.1-1.1,0.4c-0.3,0.4-0.6,0.8-0.8,1.2c-0.3,0.6-0.8,1.2-1.3,1.7
	c-0.7,0.5-1.6,0.7-2.4,0.6c-0.9,0.1-1.7-0.3-2.2-1c-0.5-1-0.7-2.1-0.4-3.2c0.2-2.1,1.2-4,2.8-5.3c1.6-1.3,3.6-2,5.6-1.9
	c1.7,0,3.4,0.4,4.9,1.4c1.4,0.9,2.4,2.4,2.9,4c1.4-1.6,3.1-3,5.1-4c1.6-0.8,3.3-1.3,5.1-1.3c1.4-0.1,2.7,0.3,3.8,1.2
	c0.8,0.8,1.1,2.1,0.8,3.9c-0.2,1.7-0.8,3.3-1.8,4.7c-0.7,1-1.8,1.6-3,1.7c-0.7,0.1-1.4-0.1-1.9-0.6c-0.3-0.5-0.5-1.1-0.6-1.7
	c0-0.4-0.1-0.8-0.2-1.2c-0.2-0.3-0.5-0.4-0.9-0.4c-0.5,0-1.2,0.5-1.9,1.5c-0.9,1.2-1.6,2.6-2.1,4c-0.7,1.7-1.1,3.4-1.4,5.1
	c-0.4,1.7-0.1,3.4,0.8,4.8c0.9,1.2,2.4,1.8,3.9,1.7c1.9,0,3.7-0.7,5.1-1.8c2.2-1.6,4.3-3.5,6.1-5.5c0.5-0.6,1.2-0.9,1.9-0.9
	C134,47.9,134.5,48.2,134.8,48.6z"/>
<linearGradient id="SVGID_12_" gradientUnits="userSpaceOnUse" x1="367.7564" y1="-22.5732" x2="363.3824" y2="8.5352" gradientTransform="matrix(1 0 0.14 -1 -224.32 39.94)">
	<stop  offset="0" style="stop-color:#03E003;stop-opacity:0"/>
	<stop  offset="0.25" style="stop-color:#03E003;stop-opacity:1.000000e-02"/>
	<stop  offset="0.39" style="stop-color:#03E103;stop-opacity:4.000000e-02"/>
	<stop  offset="0.5" style="stop-color:#03E303;stop-opacity:9.000000e-02"/>
	<stop  offset="0.6" style="stop-color:#02E502;stop-opacity:0.17"/>
	<stop  offset="0.68" style="stop-color:#02E802;stop-opacity:0.27"/>
	<stop  offset="0.76" style="stop-color:#02EC02;stop-opacity:0.39"/>
	<stop  offset="0.83" style="stop-color:#01F101;stop-opacity:0.53"/>
	<stop  offset="0.9" style="stop-color:#01F601;stop-opacity:0.7"/>
	<stop  offset="0.96" style="stop-color:#00FB00;stop-opacity:0.88"/>
	<stop  offset="1" style="stop-color:#00FF00"/>
</linearGradient>
<path class="st12" d="M130.2,59.9c-1-2-1.3-4.8-0.8-8.1c0.4-2.6,1-5.2,1.9-7.7c0.9-3,2-5.9,3.2-8.8c0.4-1.1,1.1-2.1,2-2.9
	c1-0.6,2.2-0.9,3.3-0.8c2.3,0,3.3,0.8,3.1,2.3c-0.6,2.6-1.4,5.2-2.4,7.7c-1.3,3.2-2.3,6.5-3,9.9c-0.2,1-0.2,2.1,0.1,3.1
	c0.2,0.7,0.9,1.1,1.6,1.1c1.2-0.2,2.4-0.8,3.2-1.7c1.9-1.7,3.8-3.4,5.5-5.3c0.5-0.6,1.2-0.9,1.9-0.9c0.5,0,1,0.3,1.2,0.8
	c0.3,0.7,0.3,1.5,0.2,2.2c-0.1,1.5-0.8,3-1.9,4.1c-5.2,5.4-9.7,8.1-13.5,8.1C133.1,63,131.2,62,130.2,59.9z"/>
<linearGradient id="SVGID_13_" gradientUnits="userSpaceOnUse" x1="232.6514" y1="-23.0821" x2="232.6514" y2="8.354" gradientTransform="matrix(1 0 0 -1 -71.2 39.94)">
	<stop  offset="0" style="stop-color:#03E003;stop-opacity:0"/>
	<stop  offset="0.25" style="stop-color:#03E003;stop-opacity:1.000000e-02"/>
	<stop  offset="0.39" style="stop-color:#03E103;stop-opacity:4.000000e-02"/>
	<stop  offset="0.5" style="stop-color:#03E303;stop-opacity:9.000000e-02"/>
	<stop  offset="0.6" style="stop-color:#02E502;stop-opacity:0.17"/>
	<stop  offset="0.68" style="stop-color:#02E802;stop-opacity:0.27"/>
	<stop  offset="0.76" style="stop-color:#02EC02;stop-opacity:0.39"/>
	<stop  offset="0.83" style="stop-color:#01F101;stop-opacity:0.53"/>
	<stop  offset="0.9" style="stop-color:#01F601;stop-opacity:0.7"/>
	<stop  offset="0.96" style="stop-color:#00FB00;stop-opacity:0.88"/>
	<stop  offset="1" style="stop-color:#00FF00"/>
</linearGradient>
<path class="st13" d="M176.7,41.8c0.6,0.7,0.8,1.7,0.7,2.6c-0.1,0.7-0.3,1.3-0.7,1.9c-0.9,1.6-2.1,3-3.6,4.1c-1.3,1-2.9,1.6-4.5,1.7
	c-1.2,0.1-2.3-0.4-3-1.3c-0.8-1-1.1-2.3-0.8-3.6c0.1-0.8,0.3-1.8,0.5-2.7c0.1-0.5,0.3-1,0.3-1.5c0.1-0.3,0-0.6-0.1-0.8
	c-0.1-0.2-0.3-0.3-0.5-0.3c-0.6,0-1.6,0.7-2.9,2.2c-1.5,1.8-2.8,3.8-4,5.9c-1.4,2.5-2.7,5.1-3.7,7.7c-0.5,1.5-1.3,3-2.3,4.2
	c-0.9,0.8-2,1.2-3.2,1.1c-1.6,0.1-3-1.1-3.2-2.7c-0.4-1.8-0.4-4.6,0.2-8.5c0.8-5.7,2.4-11.2,4.8-16.5c0.5-1.2,1.3-2.2,2.4-2.8
	c1.2-0.7,2.6-1,4-0.9c0.6-0.1,1.3,0.1,1.8,0.3c0.3,0.2,0.4,0.6,0.4,1.3c-0.4,1.6-1,3.3-1.7,4.8c-0.7,1.8-1.2,3.3-1.7,4.7
	c-0.5,1.3-0.9,3-1.4,4.9c1.7-3.4,3.8-6.5,6.2-9.3c1.7-2,3.7-3.8,6-5.1c1.5-0.9,3.2-1.4,5-1.5c1.1-0.1,2.1,0.3,2.8,1.1
	c0.6,1,0.8,2.1,0.6,3.2c-0.3,1.6-0.8,3.2-1.4,4.8h0.6C175.3,40.7,176.1,41.1,176.7,41.8z"/>
<path class="st14" d="M65.4,71.4c0-0.2,0.2-0.4,0.5-0.3c0.2,0,0.3,0.2,0.3,0.3v16c0,0,0,0.1,0,0.1c0,0.6-0.2,1.2-0.4,1.8
	c-0.2,0.5-0.6,1-1,1.4c-0.4,0.4-0.9,0.7-1.4,0.9c-0.6,0.2-1.2,0.3-1.8,0.3c-0.7,0-1.3-0.1-1.9-0.3c-0.6-0.2-1.1-0.5-1.5-0.9
	c-0.1-0.1-0.2-0.3-0.2-0.4c0-0.1,0-0.1,0.1-0.2c0.1-0.1,0.2-0.2,0.4-0.2c0.1,0,0.2,0.1,0.3,0.2c0.1,0.1,0.3,0.3,0.4,0.4
	c0.2,0.1,0.4,0.2,0.6,0.3c0.6,0.2,1.2,0.3,1.8,0.3c0.6,0,1.1-0.1,1.6-0.3c0.5-0.2,0.9-0.5,1.2-0.9c0.3-0.4,0.6-0.8,0.8-1.2
	c0.2-0.4,0.3-0.9,0.3-1.4L65.4,71.4z"/>
<path class="st14" d="M70,78.5c0-0.3,0.1-0.4,0.4-0.4c0.2,0,0.4,0.1,0.4,0.3c0,0,0,0.1,0,0.1v8c0,0.7,0.2,1.3,0.4,1.9
	c0.2,0.6,0.6,1.1,1,1.5c0.4,0.4,1,0.8,1.5,1c1.2,0.5,2.6,0.5,3.8,0c1.8-0.7,3-2.5,3-4.5v-7.9c0-0.2,0.1-0.4,0.3-0.4c0,0,0.1,0,0.1,0
	c0.3,0,0.4,0.1,0.4,0.4v12.8c0,0.3-0.1,0.4-0.4,0.4c-0.2,0-0.4-0.1-0.4-0.3c0,0,0-0.1,0-0.1v-2c-0.5,0.8-1.2,1.5-2.1,2
	c-1.6,0.9-3.4,1-5.1,0.3c-1.3-0.6-2.4-1.7-3-3c-0.3-0.7-0.5-1.5-0.4-2.2L70,78.5z"/>
<path class="st14" d="M85.6,74c0-0.5,0.4-0.8,0.8-0.8c0.5,0,0.8,0.4,0.8,0.8s-0.4,0.8-0.8,0.8c-0.2,0-0.4-0.1-0.6-0.2
	C85.7,74.4,85.6,74.2,85.6,74z M86,78.4c0-0.3,0.1-0.4,0.4-0.4c0.2,0,0.4,0.1,0.4,0.3c0,0,0,0.1,0,0.1v12.8c0,0.2-0.1,0.4-0.3,0.4
	c0,0-0.1,0-0.1,0c-0.3,0-0.4-0.1-0.4-0.4V78.4z"/>
<path class="st14" d="M101.7,80.2c-0.6-0.5-1.2-0.9-1.9-1.2c-0.7-0.3-1.5-0.4-2.3-0.4c-0.8,0-1.7,0.2-2.4,0.5
	c-1.5,0.6-2.7,1.9-3.4,3.4c-0.7,1.6-0.7,3.3,0,4.9c0.6,1.5,1.9,2.7,3.4,3.4c0.8,0.3,1.6,0.5,2.4,0.5c0.8,0,1.6-0.1,2.4-0.4
	c0.7-0.3,1.4-0.7,1.9-1.2c0.1-0.1,0.2-0.1,0.3-0.1c0.1,0,0.2,0,0.3,0.1c0.1,0.1,0.1,0.2,0.1,0.3c0,0.1-0.1,0.3-0.2,0.3l0,0
	c-0.6,0.6-1.4,1.1-2.2,1.4c-1.7,0.7-3.6,0.6-5.3-0.1c-0.8-0.4-1.6-0.9-2.2-1.5c-0.6-0.7-1.2-1.4-1.5-2.3c-0.7-1.8-0.7-3.8,0-5.5
	c0.4-0.8,0.9-1.6,1.5-2.3c0.6-0.6,1.4-1.2,2.2-1.5c0.9-0.4,1.8-0.6,2.8-0.6c0.9,0,1.7,0.2,2.5,0.5c0.8,0.3,1.5,0.8,2.1,1.3
	c0.1,0.1,0.2,0.2,0.2,0.4c0,0.1-0.1,0.2-0.1,0.3c-0.1,0.1-0.1,0.1-0.2,0.1C101.9,80.4,101.8,80.3,101.7,80.2z"/>
<path class="st14" d="M105.2,85c0,0.8,0.2,1.7,0.5,2.4c0.3,0.7,0.8,1.4,1.4,2c0.6,0.6,1.3,1,2,1.3c0.8,0.3,1.6,0.5,2.4,0.5
	c0.8,0,1.6-0.1,2.4-0.4c0.7-0.3,1.4-0.7,2-1.2c0.1-0.1,0.2-0.1,0.3-0.1c0.1,0,0.2,0.1,0.2,0.1c0.1,0.1,0.1,0.2,0.1,0.3
	c0,0.1-0.1,0.3-0.2,0.4l0,0c-0.6,0.6-1.4,1.1-2.2,1.4c-0.8,0.3-1.7,0.5-2.6,0.5c-1,0-1.9-0.2-2.8-0.6c-0.8-0.4-1.6-0.9-2.3-1.5
	c-0.6-0.6-1.2-1.4-1.5-2.2c-0.4-0.9-0.6-1.8-0.6-2.8c0-1.9,0.7-3.6,1.9-5c0.6-0.6,1.3-1.2,2.1-1.5c0.8-0.4,1.7-0.6,2.6-0.6
	c0.8,0,1.7,0.2,2.4,0.5c0.8,0.3,1.4,0.8,2,1.4c0.6,0.6,1.1,1.3,1.4,2.1c0.4,0.8,0.6,1.7,0.6,2.6c0,0,0,0.1,0,0.1v0.1
	c0,0.2-0.1,0.4-0.3,0.4c0,0-0.1,0-0.1,0L105.2,85z M111,78.6c-0.7,0-1.4,0.1-2.1,0.4c-0.6,0.3-1.2,0.7-1.8,1.2
	c-0.5,0.5-1,1.1-1.3,1.8c-0.3,0.7-0.6,1.4-0.6,2.2h11.6c-0.1-0.8-0.3-1.5-0.6-2.2c-0.3-0.7-0.8-1.3-1.3-1.8
	c-0.5-0.5-1.1-0.9-1.8-1.2C112.5,78.7,111.7,78.6,111,78.6L111,78.6z"/>
<path class="st14" d="M138.6,71c1.4,0,2.7,0.5,3.8,1.5c1.8,1.7,2.1,4.4,0.7,6.4c-0.3,0.4-0.6,0.7-0.9,1.1c-0.4,0.3-0.7,0.6-1.2,0.8
	c0.6,0.2,1.1,0.4,1.6,0.8c0.5,0.4,0.9,0.8,1.2,1.3c0.4,0.5,0.6,1,0.8,1.6c0.2,0.6,0.3,1.2,0.3,1.8c0,0.7-0.1,1.4-0.4,2
	c-0.3,0.6-0.6,1.2-1.1,1.7c-0.5,0.5-1,0.9-1.6,1.2c-0.6,0.3-1.3,0.5-2,0.5h-9.7c-0.1,0-0.1,0-0.1-0.1l-0.1-0.1V71.4
	c0-0.1,0-0.2,0-0.2c0,0,0-0.1,0.1-0.1c0,0,0.1,0,0.1,0L138.6,71z M143.2,76.2c0-0.6-0.1-1.2-0.4-1.8c-0.2-0.5-0.6-1-1-1.4
	c-0.9-0.8-2-1.3-3.2-1.3h-7.9v8.8h7.9c0.6,0,1.2-0.1,1.8-0.3c0.5-0.2,1-0.5,1.4-0.9c0.4-0.4,0.8-0.9,1-1.4
	C143.1,77.4,143.2,76.8,143.2,76.2z M144.2,86.3c0-0.6-0.1-1.2-0.4-1.8c-0.2-0.6-0.6-1.1-1-1.6c-0.4-0.5-0.9-0.8-1.4-1.1
	c-0.5-0.3-1.1-0.4-1.7-0.4h-8.9v9.6h9.1c0.6,0,1.2-0.2,1.7-0.4c0.5-0.2,1-0.6,1.4-1c0.4-0.4,0.7-0.9,0.9-1.4
	C144.1,87.5,144.2,86.9,144.2,86.3z"/>
<path class="st14" d="M161,91.3c0,0.3-0.1,0.4-0.4,0.4s-0.4-0.1-0.4-0.4v-3.6c-0.2,0.6-0.5,1.2-0.9,1.7c-0.4,0.5-0.9,1-1.4,1.4
	c-0.5,0.4-1.1,0.7-1.8,0.9c-1.5,0.5-3.1,0.4-4.5-0.3c-0.8-0.4-1.5-0.9-2.1-1.5c-1.3-1.4-2-3.1-2-5c0-1.9,0.7-3.7,2-5.1
	c0.6-0.6,1.3-1.2,2.1-1.5c0.8-0.4,1.7-0.6,2.6-0.6c1.3,0,2.6,0.4,3.6,1.1c0.5,0.4,1,0.8,1.4,1.3c0.4,0.5,0.7,1.1,0.9,1.7v-3.4
	c0-0.2,0.1-0.4,0.3-0.4c0,0,0.1,0,0.1,0c0.3,0,0.4,0.1,0.4,0.4L161,91.3z M160.2,84.9c0-0.8-0.2-1.7-0.5-2.5c-0.3-0.7-0.7-1.4-1.3-2
	c-0.5-0.6-1.2-1-1.9-1.4c-1.5-0.7-3.1-0.7-4.6,0c-0.7,0.3-1.3,0.8-1.9,1.4c-0.5,0.6-1,1.3-1.2,2c-0.3,0.8-0.5,1.6-0.5,2.5
	c0,1.7,0.6,3.2,1.7,4.5c0.5,0.6,1.2,1,1.9,1.4c1.5,0.7,3.1,0.7,4.6,0c0.7-0.3,1.4-0.8,1.9-1.4c0.5-0.6,1-1.3,1.3-2
	C160,86.6,160.2,85.7,160.2,84.9L160.2,84.9z"/>
<path class="st14" d="M173.2,78.9l0.1,0.1c0,0.1,0.1,0.1,0.1,0.2c0,0.1,0,0.2-0.1,0.3c-0.1,0.1-0.2,0.1-0.3,0.1h-0.2
	c-0.1,0-0.1,0-0.1-0.1c-0.4-0.3-0.8-0.5-1.3-0.6c-0.5-0.2-0.9-0.2-1.4-0.2c-0.6,0-1.1,0.1-1.6,0.4c-0.5,0.2-0.9,0.6-1.3,1
	c-0.4,0.4-0.7,1-0.9,1.5c-0.2,0.6-0.3,1.2-0.3,1.8l-0.1,7.9c0,0.2-0.1,0.4-0.3,0.4c0,0-0.1,0-0.1,0c-0.2,0-0.4-0.1-0.4-0.3
	c0,0,0-0.1,0-0.1V78.5c0-0.2,0.1-0.4,0.3-0.4c0,0,0.1,0,0.1,0c0.2,0,0.4,0.1,0.4,0.3c0,0,0,0.1,0,0.1v2.1c0.1-0.4,0.3-0.8,0.6-1.2
	c0.3-0.3,0.6-0.6,1-0.9c0.4-0.2,0.8-0.4,1.2-0.5c0.4-0.1,0.9-0.2,1.3-0.2c0.6,0,1.2,0.1,1.8,0.3C172.2,78.4,172.7,78.6,173.2,78.9z"
	/>
</svg>
